<?xml version="1.0" encoding="utf-8"?>
<!-- Generator: Adobe Illustrator 25.2.0, SVG Export Plug-In . SVG Version: 6.00 Build 0)  -->
<svg version="1.1" id="Layer_1" xmlns="http://www.w3.org/2000/svg" xmlns:xlink="http://www.w3.org/1999/xlink" x="0px" y="0px"
	 viewBox="0 0 2405.2 833.4" style="enable-background:new 0 0 2405.2 833.4;" xml:space="preserve">
<style type="text/css">
	.st0{fill:#FFFFFF;}
</style>
<path class="st0" d="M681.9,190.5C569.1,227,502.3,346,518.7,418.1c0,0,70.6,27.9,241.6-11s222.6-94.6,222.6-94.6
	c-16.3-71.9-127.5-150.1-244.6-134.7C738.2,177.8,697.3,184.5,681.9,190.5z"/>
<path class="st0" d="M674,40.9c22.4,0,40.6,18.2,40.6,40.6S696.5,122,674,122c-22.4,0-40.6-18.2-40.6-40.6S651.6,40.9,674,40.9"/>
<path class="st0" d="M307.8,570.9l-39,40.7v73.5h-66.9V394.3h66.9v135.8l128.8-135.8h74.8L351.8,523.9l127.5,161.2h-78.5
	L307.8,570.9z"/>
<path class="st0" d="M479,573.4c0-67.3,51.9-115.1,122.9-115.1s122.5,47.8,122.5,115.1s-51.5,115.1-122.5,115.1
	C530.9,688.4,479,640.7,479,573.4z M658.8,573.4c0-38.6-24.5-61.9-56.9-61.9s-57.3,23.3-57.3,61.9s24.9,61.9,57.3,61.9
	C634.3,635.3,658.8,612,658.8,573.4z"/>
<path class="st0" d="M751,547.9c0-82.2,63.4-140.6,150.2-140.6s149.7,58.4,149.7,140.6S988,688.4,901.2,688.4
	C814.5,688.4,751,630.1,751,547.9z M970.7,547.9c0-47.2-29.9-75.6-69.5-75.6s-70,28.4-70,75.6s30.4,75.6,70,75.6
	S970.7,595.1,970.7,547.9z"/>
<path class="st0" d="M1097.3,611.2V376.9h64.8v230.5c0,19.1,10,29.5,27.8,29.5c7.1,0,14.5-2.1,18.3-4.2l2.9,50.3
	c-11.2,3.7-22.4,5.4-33.6,5.4C1127.2,688.4,1097.3,661,1097.3,611.2z"/>
<path class="st0" d="M1312.5,507.3v17.9h119.6v54h-119.6v105.9h-67.3V507.7c0-74.8,49.4-118.4,133.3-118.4
	c33.2,0,63.6,7.1,85.2,20.4l-20.8,53.2c-17.9-11.6-39.5-16.2-59.8-16.2C1336.6,446.7,1312.5,467,1312.5,507.3z"/>
<path class="st0" d="M1654.7,614.9l34.5,37.4c-20.8,23.7-51.9,36.1-92.2,36.1c-77.3,0-127.5-48.6-127.5-115.1
	c0-66.9,50.7-115.1,119.6-115.1c63.1,0,115.1,41.5,115.5,113l-165.3,32c9.6,22,30.3,33.2,59.4,33.2
	C1622.3,636.5,1639.4,629.4,1654.7,614.9z M1533,566.7l108.8-21.2c-6.2-22.8-25.8-38.2-52.8-38.2
	C1556.7,507.3,1534.3,528.9,1533,566.7z"/>
<path class="st0" d="M1916.8,614.9l34.5,37.4c-20.8,23.7-51.9,36.1-92.2,36.1c-77.3,0-127.5-48.6-127.5-115.1
	c0-66.9,50.7-115.1,119.6-115.1c63.1,0,115.1,41.5,115.5,113l-165.3,32c9.6,22,30.3,33.2,59.4,33.2
	C1884.4,636.5,1901.5,629.4,1916.8,614.9z M1795.1,566.7l108.8-21.2c-6.2-22.8-25.8-38.2-52.8-38.2
	C1818.8,507.3,1796.4,528.9,1795.1,566.7z"/>
<path class="st0" d="M2244.2,381.3v308.2h-61.9v-25.8c-16.2,19.5-39.9,29.1-69.8,29.1c-63.1,0-111.7-44.9-111.7-115.1
	s48.6-115.1,111.7-115.1c27.4,0,50.7,8.7,66.9,27V381.3H2244.2z M2180.6,577.7c0-38.6-24.9-61.9-56.9-61.9
	c-32.4,0-57.3,23.3-57.3,61.9c0,38.6,24.9,61.9,57.3,61.9C2155.7,639.6,2180.6,616.4,2180.6,577.7z"/>
</svg>
