<?xml version="1.0" encoding="utf-8"?>
<!-- Generator: Adobe Illustrator 25.2.0, SVG Export Plug-In . SVG Version: 6.00 Build 0)  -->
<svg version="1.1" id="Layer_1" xmlns="http://www.w3.org/2000/svg" xmlns:xlink="http://www.w3.org/1999/xlink" x="0px" y="0px"
	 viewBox="0 0 504 173" style="enable-background:new 0 0 504 173;" xml:space="preserve">
<style type="text/css">
	.st0{fill:#FA663C;}
	.st1{fill:#FC6439;}
	.st2{fill:#504D48;}
</style>
<path class="st0" d="M134.5,43.2C109,51.5,93.9,78.3,97.6,94.6c0,0,15.9,6.3,54.6-2.5s50.3-21.4,50.3-21.4
	c-3.7-16.2-28.8-33.9-55.2-30.4C147.2,40.3,138,41.9,134.5,43.2z"/>
<path class="st1" d="M132.7,9.4c5.1,0,9.2,4.1,9.2,9.2s-4.1,9.2-9.2,9.2c-5.1,0-9.2-4.1-9.2-9.2C123.6,13.5,127.7,9.4,132.7,9.4"/>
<path class="st0" d="M50,129.1l-8.8,9.2v16.6H26.1V89.2h15.1v30.7l29.1-30.7h16.9L60,118.5l28.8,36.4H71L50,129.1z"/>
<path class="st0" d="M88.7,129.7c0-15.2,11.7-26,27.8-26c16,0,27.7,10.8,27.7,26s-11.6,26-27.7,26
	C100.4,155.6,88.7,144.9,88.7,129.7z M129.3,129.7c0-8.7-5.5-14-12.9-14c-7.3,0-12.9,5.2-12.9,14s5.6,14,12.9,14
	C123.7,143.6,129.3,138.4,129.3,129.7z"/>
<path class="st0" d="M150.1,123.9c0-18.6,14.3-31.7,33.9-31.7s33.8,13.2,33.8,31.7s-14.2,31.7-33.8,31.7S150.1,142.5,150.1,123.9z
	 M199.7,123.9c0-10.7-6.8-17.1-15.7-17.1c-8.9,0-15.8,6.4-15.8,17.1c0,10.7,6.9,17.1,15.8,17.1S199.7,134.6,199.7,123.9z"/>
<path class="st0" d="M228.3,138.2V85.3h14.6v52.1c0,4.3,2.2,6.7,6.3,6.7c1.6,0,3.3-0.5,4.1-0.9l0.7,11.3c-2.5,0.8-5.1,1.2-7.6,1.2
	C235,155.6,228.3,149.4,228.3,138.2z"/>
<path class="st2" d="M276.9,114.8v4h27V131h-27v23.9h-15.2v-40c0-16.9,11.2-26.7,30.1-26.7c7.5,0,14.4,1.6,19.2,4.6l-4.7,12
	c-4-2.6-8.9-3.7-13.5-3.7C282.3,101.1,276.9,105.7,276.9,114.8z"/>
<path class="st2" d="M354.1,139l7.8,8.4c-4.7,5.3-11.7,8.2-20.8,8.2c-17.4,0-28.8-11-28.8-26c0-15.1,11.4-26,27-26
	c14.2,0,26,9.4,26.1,25.5l-37.3,7.2c2.2,5,6.9,7.5,13.4,7.5C346.8,143.9,350.7,142.3,354.1,139z M326.7,128.2l24.6-4.8
	c-1.4-5.2-5.8-8.6-11.9-8.6C332,114.8,326.9,119.6,326.7,128.2z"/>
<path class="st2" d="M413.3,139l7.8,8.4c-4.7,5.3-11.7,8.2-20.8,8.2c-17.4,0-28.8-11-28.8-26c0-15.1,11.4-26,27-26
	c14.2,0,26,9.4,26.1,25.5l-37.3,7.2c2.2,5,6.9,7.5,13.4,7.5C406,143.9,409.9,142.3,413.3,139z M385.8,128.2l24.6-4.8
	c-1.4-5.2-5.8-8.6-11.9-8.6C391.2,114.8,386.1,119.6,385.8,128.2z"/>
<path class="st2" d="M485.8,85.3v69.6h-14v-5.8c-3.7,4.4-9,6.6-15.8,6.6c-14.2,0-25.2-10.1-25.2-26s11-26,25.2-26
	c6.2,0,11.4,2,15.1,6.1V85.3L485.8,85.3L485.8,85.3z M471.5,129.7c0-8.7-5.6-14-12.8-14c-7.3,0-12.9,5.2-12.9,14s5.6,14,12.9,14
	C465.8,143.6,471.5,138.4,471.5,129.7z"/>
</svg>
